<svg xmlns="http://www.w3.org/2000/svg" direction="ltr" width="1024" height="1024" viewBox="1056 69294 1024 1024" stroke-linecap="round" stroke-linejoin="round" data-color-mode="light" class="tl-container tl-theme__force-sRGB tl-theme__light" style="background-color: transparent;"><defs/><g transform="matrix(1, 0, 0, 1, 1056, 69294)" opacity="1"><g data-lovart-layer-name="SVG 1"><g transform="scale(1, 1)"><g>
<g xmlns="http://www.w3.org/2000/svg" stroke-width="2.00" fill="none" stroke-linecap="butt">
<path stroke="#a1a1a1" vector-effect="non-scaling-stroke" d="   M 154.34 240.14   Q 99.76 309.45 75.96 392.84   C 53.80 470.47 53.39 553.87 75.30 630.95   C 97.07 707.54 139.67 777.21 197.32 831.93   C 256.03 887.67 329.31 928.75 407.98 948.25   Q 494.13 969.62 581.22 955.19   Q 637.47 945.87 689.10 923.37   C 803.65 873.45 894.58 779.22 937.80 661.82   Q 970.47 573.09 962.48 476.50   C 958.35 426.54 944.77 376.76 923.80 330.93   C 869.06 211.32 764.34 119.85 637.69 83.33   Q 548.15 57.51 456.01 69.02   Q 355.47 81.58 270.25 135.57   Q 203.28 178.00 154.34 240.14"/>
<path stroke="#a1a1a1" vector-effect="non-scaling-stroke" d="   M 614.45 124.54   Q 581.30 167.71 533.89 230.14   Q 509.96 261.65 288.58 554.56   Q 273.68 574.28 263.96 587.37   A 0.30 0.30 0.0 0 0 264.20 587.85   L 467.33 587.85   A 0.55 0.55 0.0 0 1 467.86 588.55   L 377.10 914.17   A 0.38 0.38 0.0 0 0 377.76 914.50   L 730.57 452.01   A 0.28 0.28 0.0 0 0 730.35 451.56   L 519.99 451.56   A 0.53 0.52 -81.7 0 1 519.49 450.88   L 614.83 124.73   A 0.22 0.22 0.0 0 0 614.45 124.54"/>
<path stroke="#a1a1a1" vector-effect="non-scaling-stroke" d="   M 769.24 269.63   Q 769.00 269.86 768.86 269.86   Q 760.56 269.86 755.02 269.73   Q 750.15 269.62 747.90 270.86   C 744.25 272.86 741.87 276.43 741.87 280.74   C 741.87 285.05 744.26 288.62 747.91 290.62   Q 750.16 291.85 755.03 291.74   Q 760.57 291.60 768.87 291.60   Q 769.02 291.60 769.25 291.83   Q 769.48 292.06 769.48 292.21   Q 769.48 300.50 769.35 306.04   Q 769.24 310.91 770.48 313.16   C 772.48 316.81 776.06 319.20 780.36 319.20   C 784.67 319.19 788.24 316.80 790.24 313.15   Q 791.47 310.90 791.36 306.03   Q 791.22 300.49 791.22 292.19   Q 791.22 292.05 791.45 291.82   Q 791.68 291.58 791.83 291.58   Q 800.12 291.58 805.66 291.71   Q 810.53 291.82 812.78 290.58   C 816.43 288.58 818.82 285.01 818.82 280.70   C 818.82 276.39 816.42 272.82 812.77 270.82   Q 810.52 269.59 805.65 269.70   Q 800.11 269.84 791.82 269.85   Q 791.67 269.85 791.44 269.61   Q 791.21 269.38 791.21 269.24   Q 791.20 260.94 791.33 255.40   Q 791.44 250.53 790.21 248.28   C 788.20 244.63 784.63 242.24 780.32 242.25   C 776.02 242.25 772.44 244.64 770.45 248.29   Q 769.21 250.54 769.33 255.41   Q 769.46 260.95 769.47 269.25   Q 769.47 269.39 769.24 269.63"/>
<path stroke="#a1a1a1" vector-effect="non-scaling-stroke" d="   M 698.33 438.33   C 702.76 438.32 707.93 434.66 709.04 430.26   Q 710.10 426.07 713.44 412.49   Q 715.59 403.77 718.14 398.21   C 722.29 389.20 731.00 385.00 740.29 382.85   Q 756.20 379.17 761.24 377.74   C 772.80 374.47 772.35 358.70 760.75 355.91   Q 741.37 351.26 736.85 350.14   Q 726.30 347.52 720.47 339.80   Q 716.73 334.86 713.82 323.01   Q 710.22 308.34 709.26 304.01   C 708.13 298.87 703.61 294.96 698.25 294.96   C 692.89 294.97 688.38 298.88 687.25 304.02   Q 686.30 308.35 682.71 323.03   Q 679.82 334.88 676.08 339.83   Q 670.26 347.55 659.72 350.19   Q 655.20 351.31 635.82 355.98   C 624.23 358.79 623.79 374.56 635.36 377.81   Q 640.40 379.24 656.31 382.90   C 665.61 385.04 674.32 389.23 678.48 398.23   Q 681.04 403.79 683.20 412.51   Q 686.56 426.08 687.62 430.27   C 688.74 434.67 693.91 438.33 698.33 438.33"/>
<path stroke="#a1a1a1" vector-effect="non-scaling-stroke" d="   M 346.23 693.39   A 51.32 51.32 0.0 0 0 294.91 642.07   A 51.32 51.32 0.0 0 0 243.59 693.39   A 51.32 51.32 0.0 0 0 294.91 744.71   A 51.32 51.32 0.0 0 0 346.23 693.39"/>
<path stroke="#a1a1a1" vector-effect="non-scaling-stroke" d="   M 662.95 367.00   Q 662.95 367.29 663.30 367.36   C 676.35 369.91 687.25 377.13 693.58 389.19   Q 695.31 392.49 698.04 401.60   Q 698.08 401.70 698.14 401.77   Q 698.23 401.87 698.34 401.87   Q 698.44 401.87 698.53 401.77   Q 698.59 401.70 698.63 401.60   Q 701.36 392.49 703.09 389.19   C 709.41 377.13 720.31 369.90 733.36 367.34   Q 733.71 367.27 733.71 366.99   Q 733.71 366.70 733.36 366.64   C 720.31 364.08 709.41 356.86 703.08 344.80   Q 701.35 341.50 698.62 332.39   Q 698.58 332.29 698.52 332.22   Q 698.42 332.13 698.32 332.13   Q 698.22 332.13 698.13 332.22   Q 698.06 332.29 698.02 332.39   Q 695.30 341.50 693.57 344.80   C 687.25 356.87 676.35 364.09 663.30 366.65   Q 662.95 366.72 662.95 367.00"/>
<path stroke="#a1a1a1" vector-effect="non-scaling-stroke" d="   M 319.05 693.45   A 24.13 24.13 0.0 0 0 294.92 669.32   A 24.13 24.13 0.0 0 0 270.79 693.45   A 24.13 24.13 0.0 0 0 294.92 717.58   A 24.13 24.13 0.0 0 0 319.05 693.45"/>
</g>
<path xmlns="http://www.w3.org/2000/svg" fill="#ffffff" d="   M 1024.00 0.00   L 1024.00 1024.00   L 0.00 1024.00   L 0.00 0.00   L 1024.00 0.00   Z   M 154.34 240.14   Q 99.76 309.45 75.96 392.84   C 53.80 470.47 53.39 553.87 75.30 630.95   C 97.07 707.54 139.67 777.21 197.32 831.93   C 256.03 887.67 329.31 928.75 407.98 948.25   Q 494.13 969.62 581.22 955.19   Q 637.47 945.87 689.10 923.37   C 803.65 873.45 894.58 779.22 937.80 661.82   Q 970.47 573.09 962.48 476.50   C 958.35 426.54 944.77 376.76 923.80 330.93   C 869.06 211.32 764.34 119.85 637.69 83.33   Q 548.15 57.51 456.01 69.02   Q 355.47 81.58 270.25 135.57   Q 203.28 178.00 154.34 240.14   Z"/>
<path xmlns="http://www.w3.org/2000/svg" fill="#434343" d="   M 154.34 240.14   Q 203.28 178.00 270.25 135.57   Q 355.47 81.58 456.01 69.02   Q 548.15 57.51 637.69 83.33   C 764.34 119.85 869.06 211.32 923.80 330.93   C 944.77 376.76 958.35 426.54 962.48 476.50   Q 970.47 573.09 937.80 661.82   C 894.58 779.22 803.65 873.45 689.10 923.37   Q 637.47 945.87 581.22 955.19   Q 494.13 969.62 407.98 948.25   C 329.31 928.75 256.03 887.67 197.32 831.93   C 139.67 777.21 97.07 707.54 75.30 630.95   C 53.39 553.87 53.80 470.47 75.96 392.84   Q 99.76 309.45 154.34 240.14   Z   M 614.45 124.54   Q 581.30 167.71 533.89 230.14   Q 509.96 261.65 288.58 554.56   Q 273.68 574.28 263.96 587.37   A 0.30 0.30 0.0 0 0 264.20 587.85   L 467.33 587.85   A 0.55 0.55 0.0 0 1 467.86 588.55   L 377.10 914.17   A 0.38 0.38 0.0 0 0 377.76 914.50   L 730.57 452.01   A 0.28 0.28 0.0 0 0 730.35 451.56   L 519.99 451.56   A 0.53 0.52 -81.7 0 1 519.49 450.88   L 614.83 124.73   A 0.22 0.22 0.0 0 0 614.45 124.54   Z   M 769.24 269.63   Q 769.00 269.86 768.86 269.86   Q 760.56 269.86 755.02 269.73   Q 750.15 269.62 747.90 270.86   C 744.25 272.86 741.87 276.43 741.87 280.74   C 741.87 285.05 744.26 288.62 747.91 290.62   Q 750.16 291.85 755.03 291.74   Q 760.57 291.60 768.87 291.60   Q 769.02 291.60 769.25 291.83   Q 769.48 292.06 769.48 292.21   Q 769.48 300.50 769.35 306.04   Q 769.24 310.91 770.48 313.16   C 772.48 316.81 776.06 319.20 780.36 319.20   C 784.67 319.19 788.24 316.80 790.24 313.15   Q 791.47 310.90 791.36 306.03   Q 791.22 300.49 791.22 292.19   Q 791.22 292.05 791.45 291.82   Q 791.68 291.58 791.83 291.58   Q 800.12 291.58 805.66 291.71   Q 810.53 291.82 812.78 290.58   C 816.43 288.58 818.82 285.01 818.82 280.70   C 818.82 276.39 816.42 272.82 812.77 270.82   Q 810.52 269.59 805.65 269.70   Q 800.11 269.84 791.82 269.85   Q 791.67 269.85 791.44 269.61   Q 791.21 269.38 791.21 269.24   Q 791.20 260.94 791.33 255.40   Q 791.44 250.53 790.21 248.28   C 788.20 244.63 784.63 242.24 780.32 242.25   C 776.02 242.25 772.44 244.64 770.45 248.29   Q 769.21 250.54 769.33 255.41   Q 769.46 260.95 769.47 269.25   Q 769.47 269.39 769.24 269.63   Z   M 698.33 438.33   C 702.76 438.32 707.93 434.66 709.04 430.26   Q 710.10 426.07 713.44 412.49   Q 715.59 403.77 718.14 398.21   C 722.29 389.20 731.00 385.00 740.29 382.85   Q 756.20 379.17 761.24 377.74   C 772.80 374.47 772.35 358.70 760.75 355.91   Q 741.37 351.26 736.85 350.14   Q 726.30 347.52 720.47 339.80   Q 716.73 334.86 713.82 323.01   Q 710.22 308.34 709.26 304.01   C 708.13 298.87 703.61 294.96 698.25 294.96   C 692.89 294.97 688.38 298.88 687.25 304.02   Q 686.30 308.35 682.71 323.03   Q 679.82 334.88 676.08 339.83   Q 670.26 347.55 659.72 350.19   Q 655.20 351.31 635.82 355.98   C 624.23 358.79 623.79 374.56 635.36 377.81   Q 640.40 379.24 656.31 382.90   C 665.61 385.04 674.32 389.23 678.48 398.23   Q 681.04 403.79 683.20 412.51   Q 686.56 426.08 687.62 430.27   C 688.74 434.67 693.91 438.33 698.33 438.33   Z   M 346.23 693.39   A 51.32 51.32 0.0 0 0 294.91 642.07   A 51.32 51.32 0.0 0 0 243.59 693.39   A 51.32 51.32 0.0 0 0 294.91 744.71   A 51.32 51.32 0.0 0 0 346.23 693.39   Z"/>
<path xmlns="http://www.w3.org/2000/svg" fill="#ffffff" d="   M 614.45 124.54   A 0.22 0.22 0.0 0 1 614.83 124.73   L 519.49 450.88   A 0.53 0.52 -81.7 0 0 519.99 451.56   L 730.35 451.56   A 0.28 0.28 0.0 0 1 730.57 452.01   L 377.76 914.50   A 0.38 0.38 0.0 0 1 377.10 914.17   L 467.86 588.55   A 0.55 0.55 0.0 0 0 467.33 587.85   L 264.20 587.85   A 0.30 0.30 0.0 0 1 263.96 587.37   Q 273.68 574.28 288.58 554.56   Q 509.96 261.65 533.89 230.14   Q 581.30 167.71 614.45 124.54   Z"/>
<path xmlns="http://www.w3.org/2000/svg" fill="#ffffff" d="   M 780.32 242.25   C 784.63 242.24 788.20 244.63 790.21 248.28   Q 791.44 250.53 791.33 255.40   Q 791.20 260.94 791.21 269.24   Q 791.21 269.38 791.44 269.61   Q 791.67 269.85 791.82 269.85   Q 800.11 269.84 805.65 269.70   Q 810.52 269.59 812.77 270.82   C 816.42 272.82 818.82 276.39 818.82 280.70   C 818.82 285.01 816.43 288.58 812.78 290.58   Q 810.53 291.82 805.66 291.71   Q 800.12 291.58 791.83 291.58   Q 791.68 291.58 791.45 291.82   Q 791.22 292.05 791.22 292.19   Q 791.22 300.49 791.36 306.03   Q 791.47 310.90 790.24 313.15   C 788.24 316.80 784.67 319.19 780.36 319.20   C 776.06 319.20 772.48 316.81 770.48 313.16   Q 769.24 310.91 769.35 306.04   Q 769.48 300.50 769.48 292.21   Q 769.48 292.06 769.25 291.83   Q 769.02 291.60 768.87 291.60   Q 760.57 291.60 755.03 291.74   Q 750.16 291.85 747.91 290.62   C 744.26 288.62 741.87 285.05 741.87 280.74   C 741.87 276.43 744.25 272.86 747.90 270.86   Q 750.15 269.62 755.02 269.73   Q 760.56 269.86 768.86 269.86   Q 769.00 269.86 769.24 269.63   Q 769.47 269.39 769.47 269.25   Q 769.46 260.95 769.33 255.41   Q 769.21 250.54 770.45 248.29   C 772.44 244.64 776.02 242.25 780.32 242.25   Z"/>
<path xmlns="http://www.w3.org/2000/svg" fill="#ffffff" d="   M 698.25 294.96   C 703.61 294.96 708.13 298.87 709.26 304.01   Q 710.22 308.34 713.82 323.01   Q 716.73 334.86 720.47 339.80   Q 726.30 347.52 736.85 350.14   Q 741.37 351.26 760.75 355.91   C 772.35 358.70 772.80 374.47 761.24 377.74   Q 756.20 379.17 740.29 382.85   C 731.00 385.00 722.29 389.20 718.14 398.21   Q 715.59 403.77 713.44 412.49   Q 710.10 426.07 709.04 430.26   C 707.93 434.66 702.76 438.32 698.33 438.33   C 693.91 438.33 688.74 434.67 687.62 430.27   Q 686.56 426.08 683.20 412.51   Q 681.04 403.79 678.48 398.23   C 674.32 389.23 665.61 385.04 656.31 382.90   Q 640.40 379.24 635.36 377.81   C 623.79 374.56 624.23 358.79 635.82 355.98   Q 655.20 351.31 659.72 350.19   Q 670.26 347.55 676.08 339.83   Q 679.82 334.88 682.71 323.03   Q 686.30 308.35 687.25 304.02   C 688.38 298.88 692.89 294.97 698.25 294.96   Z   M 662.95 367.00   Q 662.95 367.29 663.30 367.36   C 676.35 369.91 687.25 377.13 693.58 389.19   Q 695.31 392.49 698.04 401.60   Q 698.08 401.70 698.14 401.77   Q 698.23 401.87 698.34 401.87   Q 698.44 401.87 698.53 401.77   Q 698.59 401.70 698.63 401.60   Q 701.36 392.49 703.09 389.19   C 709.41 377.13 720.31 369.90 733.36 367.34   Q 733.71 367.27 733.71 366.99   Q 733.71 366.70 733.36 366.64   C 720.31 364.08 709.41 356.86 703.08 344.80   Q 701.35 341.50 698.62 332.39   Q 698.58 332.29 698.52 332.22   Q 698.42 332.13 698.32 332.13   Q 698.22 332.13 698.13 332.22   Q 698.06 332.29 698.02 332.39   Q 695.30 341.50 693.57 344.80   C 687.25 356.87 676.35 364.09 663.30 366.65   Q 662.95 366.72 662.95 367.00   Z"/>
<path xmlns="http://www.w3.org/2000/svg" fill="#434343" d="   M 698.32 332.13   Q 698.42 332.13 698.52 332.22   Q 698.58 332.29 698.62 332.39   Q 701.35 341.50 703.08 344.80   C 709.41 356.86 720.31 364.08 733.36 366.64   Q 733.71 366.70 733.71 366.99   Q 733.71 367.27 733.36 367.34   C 720.31 369.90 709.41 377.13 703.09 389.19   Q 701.36 392.49 698.63 401.60   Q 698.59 401.70 698.53 401.77   Q 698.44 401.87 698.34 401.87   Q 698.23 401.87 698.14 401.77   Q 698.08 401.70 698.04 401.60   Q 695.31 392.49 693.58 389.19   C 687.25 377.13 676.35 369.91 663.30 367.36   Q 662.95 367.29 662.95 367.00   Q 662.95 366.72 663.30 366.65   C 676.35 364.09 687.25 356.87 693.57 344.80   Q 695.30 341.50 698.02 332.39   Q 698.06 332.29 698.13 332.22   Q 698.22 332.13 698.32 332.13   Z"/>
<path xmlns="http://www.w3.org/2000/svg" fill="#ffffff" d="   M 346.23 693.39   A 51.32 51.32 0.0 0 1 294.91 744.71   A 51.32 51.32 0.0 0 1 243.59 693.39   A 51.32 51.32 0.0 0 1 294.91 642.07   A 51.32 51.32 0.0 0 1 346.23 693.39   Z   M 319.05 693.45   A 24.13 24.13 0.0 0 0 294.92 669.32   A 24.13 24.13 0.0 0 0 270.79 693.45   A 24.13 24.13 0.0 0 0 294.92 717.58   A 24.13 24.13 0.0 0 0 319.05 693.45   Z"/>
<circle xmlns="http://www.w3.org/2000/svg" fill="#434343" cx="294.92" cy="693.45" r="24.13"/>
</g></g></g></g></svg>